<?xml version="1.0" standalone="no"?>
<!DOCTYPE svg PUBLIC "-//W3C//DTD SVG 20010904//EN"
 "http://www.w3.org/TR/2001/REC-SVG-20010904/DTD/svg10.dtd">
<svg version="1.0" xmlns="http://www.w3.org/2000/svg"
 width="70.000000pt" height="39.000000pt" viewBox="0 0 70.000000 39.000000"
 preserveAspectRatio="xMidYMid meet">

<g transform="translate(0.000000,39.000000) scale(0.100000,-0.100000)"
fill="#000000" stroke="none">
<path d="M13 304 c-17 -34 -17 -37 5 -77 13 -26 22 -60 22 -87 0 -51 22 -90
50 -90 28 0 50 39 50 90 0 27 9 61 22 87 22 41 22 43 5 78 -22 45 -40 41 -47
-11 -4 -34 -8 -39 -30 -39 -22 0 -25 5 -28 43 -4 53 -26 56 -49 6z m49 -65
c35 -23 78 4 78 49 0 21 2 24 10 12 5 -8 10 -23 10 -33 0 -25 -45 -67 -71 -67
-32 0 -69 38 -69 70 0 40 14 46 21 9 4 -17 13 -35 21 -40z m56 -109 c-3 -51
-5 -55 -28 -55 -23 0 -25 4 -28 55 l-3 55 31 0 31 0 -3 -55z"/>
<path d="M218 296 c-17 -39 3 -78 40 -74 21 2 28 9 30 31 3 22 -1 27 -17 27
-12 0 -21 -4 -21 -10 0 -5 5 -10 10 -10 6 0 10 -4 10 -10 0 -5 -7 -10 -15 -10
-10 0 -15 10 -15 31 0 29 2 31 26 25 19 -5 25 -3 22 6 -3 7 -17 14 -31 16 -21
3 -30 -3 -39 -22z"/>
<path d="M567 306 c-10 -24 4 -86 19 -86 10 0 12 9 8 30 -4 18 -2 30 4 30 6 0
12 -12 14 -27 4 -39 28 -42 28 -3 0 18 4 29 10 25 6 -3 10 -17 10 -31 0 -13 5
-24 11 -24 6 0 9 16 7 38 -2 28 -7 37 -20 36 -10 -1 -18 4 -18 12 0 21 -30 17
-30 -3 -1 -17 -1 -17 -14 0 -16 21 -22 21 -29 3z"/>
<path d="M305 291 c-3 -2 -5 -19 -5 -38 0 -23 5 -33 15 -33 9 0 15 9 15 25 0
14 5 25 10 25 6 0 10 6 10 13 0 12 -35 18 -45 8z"/>
<path d="M370 285 c-26 -31 13 -82 44 -56 19 16 21 42 4 59 -16 16 -33 15 -48
-3z m35 -35 c-5 -8 -11 -8 -17 -2 -6 6 -7 16 -3 22 5 8 11 8 17 2 6 -6 7 -16
3 -22z"/>
<path d="M440 291 c0 -4 5 -22 11 -40 12 -34 35 -41 42 -13 4 16 5 16 6 0 2
-27 28 -22 35 6 3 13 9 31 12 40 3 9 1 16 -5 16 -7 0 -16 -10 -21 -22 -6 -17
-9 -18 -9 -6 -1 27 -20 31 -30 6 l-8 -23 -7 23 c-7 21 -26 31 -26 13z"/>
<path d="M210 160 c0 -5 7 -10 15 -10 11 0 15 -12 15 -45 0 -33 4 -45 15 -45
11 0 15 12 15 45 0 33 4 45 15 45 8 0 15 5 15 10 0 6 -20 10 -45 10 -25 0 -45
-4 -45 -10z"/>
<path d="M480 115 c0 -42 3 -55 15 -55 12 0 15 13 15 55 0 42 -3 55 -15 55
-12 0 -15 -13 -15 -55z"/>
<path d="M314 126 c-3 -8 -4 -25 -2 -38 2 -18 9 -23 33 -23 28 0 30 3 30 35 0
31 -3 35 -28 38 -17 2 -29 -2 -33 -12z m41 -36 c-5 -8 -11 -8 -17 -2 -6 6 -7
16 -3 22 5 8 11 8 17 2 6 -6 7 -16 3 -22z"/>
<path d="M400 121 c-22 -43 29 -83 60 -47 6 8 10 25 8 38 -4 32 -52 38 -68 9z
m40 -21 c0 -11 -4 -20 -10 -20 -5 0 -10 9 -10 20 0 11 5 20 10 20 6 0 10 -9
10 -20z"/>
<path d="M527 134 c-13 -14 -7 -31 16 -43 l22 -11 -24 6 c-17 4 -22 2 -19 -7
3 -8 18 -14 34 -14 27 0 29 3 29 35 0 30 -4 35 -25 38 -14 2 -29 0 -33 -4z"/>
</g>
</svg>
